<svg width="23" height="24" viewBox="0 0 23 24" fill="none" xmlns="http://www.w3.org/2000/svg">
<g clip-path="url(#clip0_120_2)">
<path d="M11.5 0C8.45001 0 5.52494 1.22162 3.36827 3.39611C1.2116 5.5706 0 8.51985 0 11.595C0 14.6702 1.2116 17.6195 3.36827 19.794C5.52494 21.9685 8.45001 23.1901 11.5 23.1901C14.55 23.1901 17.4751 21.9685 19.6317 19.794C21.7884 17.6195 23 14.6702 23 11.595C23 8.51985 21.7884 5.5706 19.6317 3.39611C17.4751 1.22162 14.55 0 11.5 0Z" fill="#40B3E0"/>
<path d="M17.0955 6.66987L15.0417 17.1108C15.0417 17.1108 14.7542 17.8355 13.9635 17.4877L9.22337 13.8235L7.50286 12.9837L4.60091 11.9991C4.60091 11.9991 4.15169 11.8396 4.11306 11.4918C4.07443 11.1439 4.61529 10.9564 4.61529 10.9564L16.1476 6.39449C16.1476 6.39449 17.0955 5.97417 17.0955 6.66625" fill="white"/>
<path d="M8.86041 16.994C8.86041 16.994 8.72205 16.9813 8.54955 16.4305C8.37705 15.8798 7.50287 12.9837 7.50287 12.9837L14.4667 8.52507C14.4667 8.52507 14.8692 8.27867 14.8548 8.52507C14.8548 8.52507 14.9267 8.56855 14.711 8.77146C14.4954 8.97437 9.23865 13.7383 9.23865 13.7383" fill="#D2E5F1"/>
<path d="M11.0418 15.2285L9.16678 16.9496C9.12308 16.9815 9.07224 17.002 9.01879 17.0092C8.96533 17.0165 8.91093 17.0103 8.86041 16.9913L9.21979 13.7899" fill="#B5CFE4"/>
</g>
<defs>
<clipPath id="clip0_120_2">
<rect width="23" height="23.1901" fill="white"/>
</clipPath>
</defs>
</svg>
