<svg width="23" height="23" viewBox="0 0 23 23" fill="none" xmlns="http://www.w3.org/2000/svg">
<path d="M11.3336 0C8.32774 0 5.445 1.20394 3.31954 3.34697C1.19407 5.49 0 8.39657 0 11.4273C0 14.458 1.19407 17.3645 3.31954 19.5076C5.445 21.6506 8.32774 22.8545 11.3336 22.8545C14.3395 22.8545 17.2222 21.6506 19.3477 19.5076C21.4731 17.3645 22.6672 14.458 22.6672 11.4273C22.6672 8.39657 21.4731 5.49 19.3477 3.34697C17.2222 1.20394 14.3395 0 11.3336 0Z" fill="#0077FF"/>
<path d="M11.9304 15.6205C7.3757 15.6205 4.77782 12.4727 4.6698 7.23399H6.95069C7.02595 11.0791 8.7074 12.7075 10.04 13.0432V7.23399H12.188V10.5506C13.5038 10.4077 14.886 8.8963 15.3517 7.23399H17.5007C17.1465 9.28733 15.6413 10.7934 14.5787 11.4148C15.6413 11.9183 17.351 13.2369 18.0009 15.6205H15.6359C15.1286 14.0261 13.8651 12.7914 12.1889 12.6236V15.6205H11.9304Z" fill="white"/>
</svg>
